<svg width="33" height="32" viewBox="0 0 33 32" fill="none" xmlns="http://www.w3.org/2000/svg">
<path d="M7.1335 26.5786L7.13458 26.8038L7.33152 26.6946L14.9423 22.472L17.0215 23.6751L17.2201 23.79L17.2216 23.5606L17.2217 23.5404C17.3889 23.5743 17.5541 23.5746 17.7109 23.4601L17.711 23.46C17.8369 23.3679 17.9122 23.2253 17.9166 23.0687L17.9203 22.9354L17.787 22.9317L17.2666 22.9173C17.2717 22.9118 17.277 22.9067 17.2827 22.9018L17.2829 22.9016C17.3142 22.8746 17.3449 22.8637 17.3668 22.8592C17.378 22.8569 17.3868 22.8563 17.392 22.8561L17.3966 22.8561L17.3967 22.8561L17.3968 22.8562L17.3971 22.8562L17.3978 22.8562L17.3997 22.8564L17.402 22.8565L17.4076 22.8566L17.4218 22.5907C17.4219 22.5907 17.4218 22.5907 17.4216 22.5906C17.4204 22.5904 17.4135 22.5892 17.399 22.5858C17.3842 22.5822 17.3659 22.5774 17.3457 22.5719C17.3123 22.5627 17.2763 22.5522 17.2451 22.5432C17.2384 22.5412 17.232 22.5394 17.2259 22.5376L17.2184 22.5354C17.0861 22.4967 16.9583 22.4592 16.8404 22.4484L15.0187 21.3944L14.9533 21.3566L14.8873 21.3932L8.09796 25.1598L8.00432 5.68198L8.00368 5.54868L7.87039 5.54929L7.16639 5.55249L7.03302 5.55309L7.03366 5.68645L7.1335 26.5786Z" fill="#F3F3F3" stroke="#1E1850" stroke-width="0.266667"/>
<path d="M22.7295 15.3134H22.8628L22.8628 15.18L22.8621 8.52405C22.8621 6.69105 21.3708 5.19967 19.5378 5.19967H11.1045H10.9712V5.33301V6.03701V6.17034H11.1045H19.5384C20.8363 6.17034 21.8921 7.22617 21.8921 8.52405V15.18V15.3134H22.0255H22.7295Z" fill="#F3F3F3" stroke="#1E1850" stroke-width="0.266667"/>
<path d="M16.8462 22.1017C16.8462 24.8761 19.103 27.1336 21.8781 27.1336C24.6525 27.1336 26.9099 24.8761 26.9099 22.1017C26.9099 19.3272 24.6525 17.0698 21.8781 17.0698C19.1036 17.0698 16.8462 19.3272 16.8462 22.1017ZM17.8168 22.101C17.8168 19.8617 19.6387 18.0398 21.8781 18.0398C24.1174 18.0398 25.9393 19.8617 25.9393 22.101C25.9393 24.3404 24.1174 26.1623 21.8781 26.1623C19.6387 26.1623 17.8168 24.3404 17.8168 22.101Z" fill="#F3F3F3" stroke="#1E1850" stroke-width="0.266667"/>
<path d="M22.1879 19.3955V19.2622H22.0546H21.3506H21.2173V19.3955V24.3427V24.476H21.3506H22.0546H22.1879V24.3427V19.3955Z" fill="#F3F3F3" stroke="#1E1850" stroke-width="0.266667"/>
<path d="M24.3081 21.5205V21.3872H24.1747H19.2275H19.0942V21.5205V22.2245V22.3578H19.2275H24.1747H24.3081V22.2245V21.5205Z" fill="#F3F3F3" stroke="#1E1850" stroke-width="0.266667"/>
<path d="M12.8535 12.8189L14.006 12.6575C14.0061 12.6575 14.0062 12.6574 14.0062 12.6574L14.0064 12.6574L13.9879 12.5254L12.8535 12.8189ZM12.8535 12.8189L13.7061 13.6116L13.7062 13.6117L13.6154 13.7094C13.7223 13.8086 13.771 13.9538 13.7454 14.0972L12.8535 12.8189ZM15.4243 10.0836L16.247 11.7528L16.306 11.8725L16.1863 11.9314L15.5547 12.2424L15.4351 12.3013L15.3762 12.1818L14.9304 11.2777L14.4378 12.3383L14.4378 12.3383L15.4243 10.0836ZM15.4243 10.0836C15.4242 10.0835 15.4242 10.0834 15.4241 10.0833C15.3294 9.88922 15.1358 9.76803 14.9198 9.76803H14.9153V9.76802L14.9137 9.76804C14.6962 9.77055 14.5025 9.89511 14.4104 10.0927L14.4104 10.0929L13.6512 11.7269L11.8665 11.9767L11.8664 11.9767L11.8849 12.1087L15.4243 10.0836ZM17.3732 15.9007L17.0268 14.1326L12.5677 15.9438L12.699 15.9673L12.5677 15.9441L12.5677 15.944C12.5292 16.1593 12.6169 16.3724 12.7942 16.4988C12.8747 16.5564 12.9667 16.5906 13.0612 16.6006L13.0649 16.6043H13.1201C13.2144 16.6043 13.3076 16.5806 13.3933 16.5332L13.3935 16.5331L14.9685 15.657L16.5588 16.5042L16.559 16.5043C16.7514 16.6063 16.9814 16.5896 17.1566 16.4597C17.3317 16.3298 17.415 16.115 17.3732 15.9008L17.3732 15.9007ZM12.8814 14.1698L12.9346 14.2192L13.0254 14.1215L12.8941 14.0983L12.8814 14.1698ZM11.409 12.3633C11.409 12.3634 11.409 12.3635 11.409 12.3635C11.4089 12.3636 11.4089 12.3637 11.4089 12.3638L11.5361 12.4038L11.409 12.3633Z" fill="#F3F3F3" stroke="#1E1850" stroke-width="0.266667"/>
</svg>
