<svg width="42" height="42" viewBox="0 0 42 42" fill="none" xmlns="http://www.w3.org/2000/svg">
<path d="M11.4293 13.2978C11.4293 16.5644 13.7728 19.2446 16.6877 19.2446C19.6026 19.2446 21.9462 16.5644 21.9462 13.2978C21.9462 10.0313 19.6026 7.35113 16.6877 7.35113C13.7728 7.35113 11.4293 10.0313 11.4293 13.2978ZM12.4826 13.2978C12.4826 10.5735 14.3745 8.38727 16.6877 8.38727C18.984 8.38727 20.8928 10.5738 20.8928 13.2978C20.8928 16.0219 18.984 18.2084 16.6877 18.2084C14.3914 18.2084 12.4826 16.0219 12.4826 13.2978Z" fill="#1E1850" stroke="#1E1850" stroke-width="0.227437" stroke-miterlimit="10"/>
<path d="M6.88628 33.6526V33.7663H7H9.29519H9.40891H9.42611V33.6526H9.52262V32.8439V32.7302H9.40891H7.92242V27.0281C7.92242 23.8217 10.5385 21.2056 13.7449 21.2056H13.8587V21.0919V20.2832V20.1695H13.7449C9.96553 20.1695 6.88628 23.2487 6.88628 27.0281V33.6526Z" fill="#1E1850" stroke="#1E1850" stroke-width="0.227437" stroke-miterlimit="10"/>
<path d="M12.6851 33.6526V33.7663H12.7988H25.6416H25.7553H25.7725V33.6526H25.869V27.0281C25.869 23.2487 22.7898 20.1695 19.0104 20.1695H18.8966V20.2832V21.0919V21.2056H19.0104C22.2168 21.2056 24.8329 23.8217 24.8329 27.0281V32.7302H12.7988H12.6851V32.8439V33.6526Z" fill="#1E1850" stroke="#1E1850" stroke-width="0.227437" stroke-miterlimit="10"/>
<path d="M23.0435 12.5749C23.0435 15.7042 25.3014 18.2635 28.0783 18.2635C30.8726 18.2635 33.1131 15.7039 33.1131 12.5749C33.1131 9.44588 30.8726 6.88628 28.0783 6.88628C25.2839 6.88628 23.0435 9.44588 23.0435 12.5749ZM24.0969 12.5749C24.0969 10.0059 25.9022 7.93963 28.0783 7.93963C30.2543 7.93963 32.0597 10.0059 32.0597 12.5749C32.0597 15.1438 30.2543 17.2102 28.0783 17.2102C25.9022 17.2102 24.0969 15.1438 24.0969 12.5749Z" fill="#1E1850" stroke="#1E1850" stroke-width="0.227437" stroke-miterlimit="10"/>
<path d="M22.8299 20.5721L22.8778 20.6752L22.981 20.6272C23.7055 20.2902 24.4806 20.1216 25.2903 20.1216H25.404V20.0079V19.1992V19.0855H25.2903C24.3285 19.0855 23.3999 19.2779 22.5405 19.6813L22.438 19.7294L22.4858 19.8322L22.8299 20.5721Z" fill="#1E1850" stroke="#1E1850" stroke-width="0.227437" stroke-miterlimit="10"/>
<path d="M35.8105 31.0444H27.8027H27.689V31.1581V31.9668V32.0805H27.8027H36.6626L36.8638 32.4829V32.0012V25.6692C36.8638 22.0447 33.9222 19.1031 30.2977 19.1031H30.184V19.2168V20.0255V20.1392H30.2977C33.332 20.1392 35.8105 22.6177 35.8105 25.652V31.0444Z" fill="#1E1850" stroke="#1E1850" stroke-width="0.227437" stroke-miterlimit="10"/>
</svg>
