<svg width="28" height="28" viewBox="0 0 28 28" fill="none" xmlns="http://www.w3.org/2000/svg">
<path d="M8.50835 20.4701V20.5838H8.62207H21.9623H21.9741C23.43 20.5838 24.6142 19.3996 24.6142 17.9437V7.80278C24.6142 7.29027 24.1962 6.88628 23.6977 6.88628H14.5957H14.4819V7V7.56666V7.68038H14.5957H23.6977C23.7648 7.68038 23.8201 7.73572 23.8201 7.80278V17.9437C23.8201 18.967 22.9856 19.8015 21.9623 19.8015H8.62207H8.50835V19.9152V20.4701Z" fill="#1E1850" stroke="#1E1850" stroke-width="0.227437" stroke-miterlimit="10"/>
<path d="M5.22185 18.5887H5.33557V18.475V10.2937C5.33557 8.84544 6.51243 7.66858 7.96073 7.66858H11.6441H11.7578V7.55486V7V6.88628H11.6441H7.96073C6.07988 6.88628 4.55327 8.41289 4.55327 10.2937V18.475V18.5887H4.66699H5.22185Z" fill="#1E1850" stroke="#1E1850" stroke-width="0.227437" stroke-miterlimit="10"/>
<path d="M14.3392 16.1869L14.2976 16.2285H14.5722C14.8114 16.2285 15.0403 16.1481 15.228 15.9738L15.2281 15.9738L24.2003 7.63909L24.2829 7.5623L24.2068 7.47904L23.829 7.06584L23.7517 6.9813L23.6677 7.05921L14.6837 15.3939L14.6837 15.3939L14.6807 15.3969C14.6188 15.4587 14.5138 15.4587 14.4519 15.3969L14.452 15.3968L14.4489 15.3939L7.33016 8.78286L7.24618 8.70487L7.16885 8.78945L6.79107 9.20264L6.7148 9.28606L6.79776 9.36284L13.9282 15.962C14.0505 16.0756 14.1904 16.1494 14.3392 16.1869Z" fill="#1E1850" stroke="#1E1850" stroke-width="0.227437" stroke-miterlimit="10"/>
<path d="M12.0876 13.5178L12.0144 13.4308L11.9274 13.504L6.11916 18.3915L6.03215 18.4647L6.10537 18.5517L6.46262 18.9763L6.53584 19.0633L6.62285 18.9901L12.431 14.1026L12.518 14.0294L12.4448 13.9424L12.0876 13.5178Z" fill="#1E1850" stroke="#1E1850" stroke-width="0.227437" stroke-miterlimit="10"/>
<path d="M17.317 13.4408L17.2315 13.3658L17.1565 13.4513L16.7905 13.8683L16.7155 13.9538L16.801 14.0288L22.3999 18.9424L22.4854 19.0175L22.5604 18.932L22.9264 18.5149L23.0014 18.4295L22.9159 18.3545L17.317 13.4408Z" fill="#1E1850" stroke="#1E1850" stroke-width="0.227437" stroke-miterlimit="10"/>
</svg>
