<svg width="28" height="28" viewBox="0 0 28 28" fill="none" xmlns="http://www.w3.org/2000/svg">
<path d="M8.78034 21.8837H8.89406V21.77V5.73154C8.89406 4.90514 9.56269 4.22707 10.3724 4.22707H13.4131H13.5268V4.11335V3.5V3.38628H13.4131H10.3724C9.09468 3.38628 8.05327 4.44335 8.05327 5.73154V21.77V21.8837H8.16699H8.78034Z" fill="#1E1850" stroke="#1E1850" stroke-width="0.227437" stroke-miterlimit="10"/>
<path d="M11.9029 24.0015V24.1152H12.0166H17.6281C18.9058 24.1152 19.9473 23.0581 19.9473 21.77V5.73154C19.9473 4.44335 18.9058 3.38628 17.6281 3.38628H17.5144V3.5V4.11335V4.22707H17.6281C18.4378 4.22707 19.1065 4.90514 19.1065 5.73154V21.77C19.1065 22.6088 18.4384 23.2744 17.6281 23.2744H12.0166H11.9029V23.3882V24.0015Z" fill="#1E1850" stroke="#1E1850" stroke-width="0.227437" stroke-miterlimit="10"/>
<path d="M15.5364 4.93555V4.82183H15.4227H12.5908H12.4771V4.93555V5.5489V5.66261H12.5908H15.4227H15.5364V5.5489V4.93555Z" fill="#1E1850" stroke="#1E1850" stroke-width="0.227437" stroke-miterlimit="10"/>
<path d="M16.5932 21.875V21.7613H16.4795H11.5205H11.4068V21.875V22.4883V22.6021H11.5205H16.4795H16.5932V22.4883V21.875Z" fill="#1E1850" stroke="#1E1850" stroke-width="0.227437" stroke-miterlimit="10"/>
<path d="M15.531 8.62294L15.4423 8.55178L15.3711 8.64048L11.6799 13.2413L11.6087 13.33L11.6974 13.4012L12.1758 13.785L12.2645 13.8562L12.3357 13.7675L16.0269 9.16663L16.0981 9.07793L16.0094 9.00677L15.531 8.62294Z" fill="#1E1850" stroke="#1E1850" stroke-width="0.227437" stroke-miterlimit="10"/>
<path d="M15.5893 11.6695L15.5006 11.5983L15.4295 11.687L12.465 15.382L12.3938 15.4707L12.4825 15.5418L12.961 15.9256L13.0497 15.9968L13.1208 15.9081L16.0853 12.2132L16.1564 12.1245L16.0677 12.0533L15.5893 11.6695Z" fill="#1E1850" stroke="#1E1850" stroke-width="0.227437" stroke-miterlimit="10"/>
</svg>
