<svg width="28" height="29" viewBox="0 0 28 29" fill="none" xmlns="http://www.w3.org/2000/svg">
<path d="M10.3775 15.0816H10.4246L10.4375 15.0687C11.3954 15.0617 12.5091 14.8427 13.7405 14.4281L13.7405 14.4282L13.745 14.4264C13.7533 14.4233 13.7712 14.4166 13.7981 14.4067C14.2975 14.2217 17.8977 12.8877 20.3197 11.2529L20.4151 11.1885L20.3496 11.0939L20.0067 10.5987L19.9427 10.5062L19.8495 10.5693C17.5759 12.1087 14.0654 13.4279 13.5258 13.6306C13.4939 13.6427 13.4723 13.6508 13.4621 13.6547C12.7119 13.9068 11.8271 14.1384 10.9672 14.2166C10.1042 14.295 9.28009 14.2176 8.64216 13.8652L8.64163 13.8649C8.17114 13.6083 7.93913 13.2676 7.82612 13.0523L15.8115 5.93604L15.8974 5.85942L15.8197 5.77441L15.4134 5.33L15.3377 5.24718L15.2539 5.3218L6.92439 12.7371L6.87493 12.7811L6.88881 12.8458L6.9269 13.0236L6.92621 13.0237L6.93021 13.0357C6.92913 13.0325 6.94979 13.1109 6.98677 13.2081C7.02554 13.3099 7.08677 13.4472 7.18057 13.6016C7.36838 13.9108 7.68646 14.2878 8.21399 14.5845L8.21432 14.5847C8.77939 14.9001 9.48459 15.0816 10.3013 15.0816H10.3015H10.3016H10.3018H10.3019H10.3021H10.3022H10.3024H10.3025H10.3027H10.3028H10.303H10.3031H10.3033H10.3035H10.3036H10.3038H10.3039H10.3041H10.3042H10.3044H10.3046H10.3047H10.3049H10.3051H10.3052H10.3054H10.3055H10.3057H10.3059H10.306H10.3062H10.3064H10.3065H10.3067H10.3069H10.307H10.3072H10.3074H10.3075H10.3077H10.3079H10.308H10.3082H10.3084H10.3086H10.3087H10.3089H10.3091H10.3092H10.3094H10.3096H10.3098H10.3099H10.3101H10.3103H10.3105H10.3106H10.3108H10.311H10.3112H10.3113H10.3115H10.3117H10.3119H10.3121H10.3122H10.3124H10.3126H10.3128H10.313H10.3131H10.3133H10.3135H10.3137H10.3139H10.3141H10.3142H10.3144H10.3146H10.3148H10.315H10.3152H10.3153H10.3155H10.3157H10.3159H10.3161H10.3163H10.3165H10.3167H10.3168H10.317H10.3172H10.3174H10.3176H10.3178H10.318H10.3182H10.3183H10.3185H10.3187H10.3189H10.3191H10.3193H10.3195H10.3197H10.3199H10.3201H10.3203H10.3204H10.3206H10.3208H10.321H10.3212H10.3214H10.3216H10.3218H10.322H10.3222H10.3224H10.3226H10.3228H10.323H10.3232H10.3234H10.3235H10.3237H10.3239H10.3241H10.3243H10.3245H10.3247H10.3249H10.3251H10.3253H10.3255H10.3257H10.3259H10.3261H10.3263H10.3265H10.3267H10.3269H10.3271H10.3273H10.3275H10.3277H10.3279H10.3281H10.3283H10.3285H10.3287H10.3289H10.3291H10.3293H10.3295H10.3296H10.3298H10.33H10.3302H10.3304H10.3306H10.3308H10.331H10.3312H10.3314H10.3316H10.3318H10.332H10.3322H10.3324H10.3326H10.3328H10.333H10.3332H10.3334H10.3336H10.3338H10.334H10.3342H10.3344H10.3346H10.3348H10.335H10.3352H10.3354H10.3356H10.3358H10.336H10.3362H10.3364H10.3366H10.3368H10.337H10.3372H10.3374H10.3376H10.3378H10.338H10.3382H10.3384H10.3386H10.3388H10.339H10.3391H10.3393H10.3395H10.3397H10.3399H10.3401H10.3403H10.3405H10.3407H10.3409H10.3411H10.3413H10.3415H10.3417H10.3419H10.3421H10.3423H10.3425H10.3427H10.3429H10.343H10.3432H10.3434H10.3436H10.3438H10.344H10.3442H10.3444H10.3446H10.3448H10.345H10.3452H10.3454H10.3455H10.3457H10.3459H10.3461H10.3463H10.3465H10.3467H10.3469H10.3471H10.3473H10.3474H10.3476H10.3478H10.348H10.3482H10.3484H10.3486H10.3487H10.3489H10.3491H10.3493H10.3495H10.3497H10.3499H10.35H10.3502H10.3504H10.3506H10.3508H10.351H10.3511H10.3513H10.3515H10.3517H10.3519H10.3521H10.3522H10.3524H10.3526H10.3528H10.353H10.3531H10.3533H10.3535H10.3537H10.3538H10.354H10.3542H10.3544H10.3545H10.3547H10.3549H10.3551H10.3552H10.3554H10.3556H10.3558H10.3559H10.3561H10.3563H10.3564H10.3566H10.3568H10.357H10.3571H10.3573H10.3575H10.3576H10.3578H10.358H10.3581H10.3583H10.3585H10.3586H10.3588H10.359H10.3591H10.3593H10.3594H10.3596H10.3598H10.3599H10.3601H10.3603H10.3604H10.3606H10.3607H10.3609H10.361H10.3612H10.3614H10.3615H10.3617H10.3618H10.362H10.3621H10.3623H10.3624H10.3626H10.3627H10.3629H10.363H10.3632H10.3633H10.3635H10.3636H10.3638H10.3639H10.3641H10.3642H10.3644H10.3645H10.3647H10.3648H10.3649H10.3651H10.3652H10.3654H10.3655H10.3657H10.3658H10.3659H10.3661H10.3662H10.3663H10.3665H10.3666H10.3667H10.3669H10.367H10.3671H10.3673H10.3674H10.3675H10.3677H10.3678H10.3679H10.3681H10.3682H10.3683H10.3684H10.3686H10.3687H10.3688H10.3689H10.3691H10.3692H10.3693H10.3694H10.3695H10.3696H10.3698H10.3699H10.37H10.3701H10.3702H10.3703H10.3705H10.3706H10.3707H10.3708H10.3709H10.371H10.3711H10.3712H10.3713H10.3714H10.3715H10.3716H10.3718H10.3719H10.372H10.3721H10.3722H10.3723H10.3724H10.3725H10.3726H10.3727H10.3727H10.3728H10.3729H10.373H10.3731H10.3732H10.3733H10.3734H10.3735H10.3736H10.3737H10.3737H10.3738H10.3739H10.374H10.3741H10.3742H10.3742H10.3743H10.3744H10.3745H10.3746H10.3746H10.3747H10.3748H10.3749H10.3749H10.375H10.3751H10.3751H10.3752H10.3753H10.3753H10.3754H10.3755H10.3755H10.3756H10.3757H10.3757H10.3758H10.3758H10.3759H10.376H10.376H10.3761H10.3761H10.3762H10.3762H10.3763H10.3763H10.3764H10.3764H10.3765H10.3765H10.3766H10.3766H10.3767H10.3767H10.3767H10.3768H10.3768H10.3769H10.3769H10.3769H10.377H10.377H10.377H10.3771H10.3771H10.3771H10.3772H10.3772H10.3772H10.3772H10.3773H10.3773H10.3773H10.3773H10.3773H10.3774H10.3774H10.3774H10.3774H10.3774H10.3774H10.3774H10.3775H10.3775H10.3775H10.3775H10.3775H10.3775Z" fill="#1E1850" stroke="#1E1850" stroke-width="0.227437" stroke-miterlimit="10"/>
<path d="M14.2575 9.82861L14.3353 9.9088L14.4169 9.83239L16.8498 7.55228L16.8284 8.98587L16.8267 9.09891L16.9397 9.10126L17.5492 9.11396L17.6639 9.11635L17.6653 9.00165L17.7034 5.8781L17.7066 5.61113L17.5119 5.79376L13.8423 9.23475L13.7579 9.31388L13.8385 9.3969L14.2575 9.82861Z" fill="#1E1850" stroke="#1E1850" stroke-width="0.227437" stroke-miterlimit="10"/>
<path d="M9.73836 13.5984L9.73803 13.5986L9.74416 13.606C9.82985 13.7088 9.95109 13.7612 10.0728 13.7612H10.0982C10.1424 13.7612 10.1955 13.7465 10.2261 13.7373C10.2439 13.732 10.2597 13.7267 10.2711 13.7228L10.2848 13.7179L10.2887 13.7165L10.2899 13.7161L10.2903 13.7159L10.2904 13.7159L10.2904 13.7159L10.2904 13.7159L10.2505 13.6094L10.2905 13.7159L10.3004 13.7121L10.3095 13.7066L14.9186 10.9132L14.9186 10.9132L14.9207 10.9119C15.1086 10.7924 15.1828 10.5332 15.0572 10.3359C14.9379 10.1484 14.6794 10.0741 14.4822 10.1988L13.2677 10.939L14.4297 9.84486L14.4298 9.8449L14.4322 9.84248C14.5871 9.68759 14.6058 9.42845 14.449 9.25428L14.4491 9.25418L14.4449 9.24995C14.29 9.09506 14.0309 9.07638 13.8567 9.23313L13.8567 9.23312L13.855 9.2347L9.79184 13.0439L9.7918 13.0439L9.7892 13.0465C9.63609 13.1996 9.61768 13.426 9.73836 13.5984Z" fill="#1E1850" stroke="#1E1850" stroke-width="0.227437" stroke-miterlimit="10"/>
<path d="M18.9482 11.8947H19.062V11.781V7.61621V7.41427L18.8893 7.51897L14.4706 10.1981L14.3738 10.2568L14.432 10.3539L14.7368 10.8618L14.7954 10.9595L14.893 10.9006L18.2377 8.88414V11.781V11.8947H18.3515H18.9482Z" fill="#1E1850" stroke="#1E1850" stroke-width="0.227437" stroke-miterlimit="10"/>
<path d="M7.54602 17.0254H7.4323V17.1392V22.0023C7.4323 23.0791 7.93163 24.0788 8.81269 24.7101C9.38998 25.1299 10.0607 25.3538 10.7585 25.3538H10.7712C11.1249 25.3538 11.4802 25.3014 11.8233 25.1828C13.3934 24.6679 15.1887 24.0091 16.7661 23.2491C18.3391 22.4912 19.7133 21.6244 20.423 20.6869L20.4913 20.5966L20.4013 20.5278L19.9188 20.1596L19.8279 20.0903L19.7591 20.1815C19.1295 21.0147 17.8508 21.8175 16.3314 22.5408C14.8171 23.2616 13.0827 23.8947 11.561 24.3956C10.7833 24.6508 9.95785 24.5173 9.30146 24.0433C8.63247 23.5567 8.25652 22.8163 8.25652 22.0023V17.1392V17.0254H8.1428H7.54602Z" fill="#1E1850" stroke="#1E1850" stroke-width="0.227437" stroke-miterlimit="10"/>
<path d="M18.4662 15.3997C18.4662 15.8563 18.5852 16.2694 18.7851 16.5718C18.9847 16.8738 19.2732 17.0752 19.6084 17.0752C19.9437 17.0752 20.2322 16.8738 20.4318 16.5718C20.6317 16.2694 20.7507 15.8563 20.7507 15.3997C20.7507 14.943 20.6317 14.5299 20.4318 14.2275C20.2322 13.9256 19.9437 13.7242 19.6084 13.7242C19.2732 13.7242 18.9847 13.9256 18.7851 14.2275C18.5852 14.5299 18.4662 14.943 18.4662 15.3997ZM19.3031 15.3997C19.3031 15.1234 19.3633 14.8999 19.4388 14.749C19.4766 14.6732 19.5167 14.6191 19.5518 14.5856C19.5868 14.5522 19.6065 14.5487 19.6083 14.5484C19.6085 14.5484 19.6085 14.5484 19.6084 14.5484C19.6084 14.5484 19.6084 14.5484 19.6086 14.5484C19.6104 14.5487 19.6301 14.5522 19.6651 14.5856C19.7002 14.6191 19.7403 14.6732 19.7781 14.749C19.8536 14.8999 19.9137 15.1234 19.9137 15.3997C19.9137 15.6759 19.8536 15.8995 19.7781 16.0503C19.7403 16.1261 19.7002 16.1802 19.6651 16.2137C19.6301 16.2471 19.6104 16.2506 19.6086 16.2509C19.6084 16.2509 19.6084 16.251 19.6084 16.251C19.6085 16.251 19.6085 16.2509 19.6083 16.2509C19.6065 16.2506 19.5868 16.2471 19.5518 16.2137C19.5167 16.1802 19.4766 16.1261 19.4388 16.0503C19.3633 15.8995 19.3031 15.6759 19.3031 15.3997Z" fill="#1E1850" stroke="#1E1850" stroke-width="0.227437" stroke-miterlimit="10"/>
</svg>
